<svg width="35" height="34" viewBox="0 0 35 34" fill="none" xmlns="http://www.w3.org/2000/svg">
<rect x="1.0625" y="0.5" width="33" height="33" rx="9.5" stroke="#F4F5F7"/>
<g clip-path="url(#clip0_84_8670)">
<path d="M22.4991 16.9986C22.4991 17.2287 22.4026 17.4587 22.21 17.6342L16.1467 23.1546C15.761 23.5058 15.1356 23.5058 14.7501 23.1546C14.3646 22.8036 14.3646 22.2343 14.7501 21.8831L20.1153 16.9986L14.7503 12.114C14.3647 11.7628 14.3647 11.1936 14.7503 10.8426C15.1358 10.4913 15.7612 10.4913 16.1469 10.8426L22.2102 16.363C22.4029 16.5385 22.4991 16.7686 22.4991 16.9986V16.9986Z" fill="#F8FAFC"/>
</g>
<defs>
<clipPath id="clip0_84_8670">
<rect width="12.8388" height="8.03819" fill="white" transform="matrix(0 -1 1 0 14.4609 23.418)"/>
</clipPath>
</defs>
</svg>
