<svg width="34" height="35" viewBox="0 0 34 35" fill="none" xmlns="http://www.w3.org/2000/svg">
<path opacity="0.5" d="M24 34.3594H10C4.75329 34.3594 0.5 30.1061 0.5 24.8594V10.8594C0.5 5.61267 4.75329 1.35938 10 1.35938H24C29.2467 1.35938 33.5 5.61267 33.5 10.8594V24.8594C33.5 30.1061 29.2467 34.3594 24 34.3594Z" stroke="#F8FAFC"/>
<g clip-path="url(#clip0_84_8671)">
<path d="M12.0634 16.9975C12.0634 16.7674 12.1599 16.5374 12.3525 16.3619L18.4158 10.8415C18.8015 10.4903 19.4269 10.4903 19.8124 10.8415C20.1979 11.1925 20.1979 11.7618 19.8124 12.113L14.4472 16.9975L19.8122 21.8821C20.1978 22.2333 20.1978 22.8025 19.8122 23.1535C19.4267 23.5048 18.8013 23.5048 18.4156 23.1535L12.3523 17.6331C12.1596 17.4576 12.0634 17.2275 12.0634 16.9975V16.9975Z" fill="#F8FAFC"/>
</g>
<defs>
<clipPath id="clip0_84_8671">
<rect width="12.8388" height="8.03819" fill="white" transform="matrix(0 1 -1 0 20.1016 10.5781)"/>
</clipPath>
</defs>
</svg>
